<svg width="100" height="32" viewBox="0 0 100 32" fill="none" xmlns="http://www.w3.org/2000/svg">
<mask id="mask0_5154_3174" style="mask-type:alpha" maskUnits="userSpaceOnUse" x="25" y="0" width="7" height="22">
<path d="M25.2793 0H31.852V21.1613H25.2793V0Z" fill="white"/>
</mask>
<g mask="url(#mask0_5154_3174)">
<path fill-rule="evenodd" clip-rule="evenodd" d="M29.0744 0V15.6704C29.0744 17.7984 29.8721 18.2295 31.7146 17.9132L31.852 20.9322C27.7543 21.7087 25.2793 20.6449 25.2793 15.6704V0H29.0744Z" fill="#272626"/>
</g>
<mask id="mask1_5154_3174" style="mask-type:alpha" maskUnits="userSpaceOnUse" x="33" y="0" width="8" height="22">
<path d="M33.875 0H40.4477V21.1613H33.875V0Z" fill="white"/>
</mask>
<g mask="url(#mask1_5154_3174)">
<path fill-rule="evenodd" clip-rule="evenodd" d="M37.6701 0V15.6704C37.6701 17.7984 38.4678 18.2295 40.3103 17.9132L40.4477 20.9322C36.35 21.7087 33.875 20.6449 33.875 15.6704V0H37.6701Z" fill="#272626"/>
</g>
<path fill-rule="evenodd" clip-rule="evenodd" d="M70.6103 12.698H76.5565C76.7501 10.8842 75.5608 9.6461 73.7354 9.6461C71.7996 9.6461 70.942 11.028 70.6103 12.698ZM79.6268 15.2026H70.6103C70.8591 17.4767 72.7121 17.8225 74.1504 17.9663C75.8098 18.0525 77.4971 17.7934 79.1009 17.1026L79.5435 19.9527C77.9671 20.73 76.142 21.1616 74.3719 21.1616C69.7806 21.1616 66.7383 18.4554 66.7383 13.7631C66.7383 9.0707 70.306 6.70996 73.7354 6.70996C78.6031 6.70996 80.6501 10.4812 79.6268 15.2026Z" fill="#272626"/>
<mask id="mask2_5154_3174" style="mask-type:alpha" maskUnits="userSpaceOnUse" x="83" y="0" width="7" height="22">
<path d="M83.4238 0H89.9966V21.1613H83.4238V0Z" fill="white"/>
</mask>
<g mask="url(#mask2_5154_3174)">
<path fill-rule="evenodd" clip-rule="evenodd" d="M87.2189 0V15.6704C87.2189 17.7984 88.0166 18.2295 89.8591 17.9132L89.9966 20.9322C85.8989 21.7087 83.4238 20.6449 83.4238 15.6704V0H87.2189Z" fill="#272626"/>
</g>
<mask id="mask3_5154_3174" style="mask-type:alpha" maskUnits="userSpaceOnUse" x="92" y="0" width="8" height="22">
<path d="M92.5244 0H99.0972V21.1613H92.5244V0Z" fill="white"/>
</mask>
<g mask="url(#mask3_5154_3174)">
<path fill-rule="evenodd" clip-rule="evenodd" d="M96.3195 0V15.6704C96.3195 17.7984 97.1173 18.2295 98.9597 17.9132L99.0972 20.9322C94.9994 21.7087 92.5244 20.6449 92.5244 15.6704V0H96.3195Z" fill="#272626"/>
</g>
<path fill-rule="evenodd" clip-rule="evenodd" d="M61.3533 7.22559L59.9918 11.2439L58.9488 14.3786H58.862L55.7047 7.53913H54.1695L51.0414 14.3786H50.9834L49.9117 11.2439L48.4342 7.22559H48.0312C48.0331 7.23014 48.035 7.23482 48.0368 7.23938H48.0391C48.908 9.29629 49.3903 11.5498 49.3903 13.9126C49.3903 15.5217 49.163 17.0786 48.7465 18.559L49.8538 21.1611H51.6496L53.2427 17.9122L54.9225 14.1791L56.6608 17.7981L58.3987 21.1611H59.9337L65.7271 7.68159V7.22559H61.3533Z" fill="#272626"/>
<path fill-rule="evenodd" clip-rule="evenodd" d="M10.6332 7.74219L10.6172 7.77495L13.6508 13.9357L10.6332 7.74219Z" fill="#272626"/>
<path fill-rule="evenodd" clip-rule="evenodd" d="M10.1262 7.84577L7.36737 14.6007H12.8856L10.1262 7.84577ZM9.58602 1.03223H9.15902L0 21.0925V21.6774H4.43764L5.97334 18.2852H14.2509L15.6364 21.2895L15.674 21.4193C18.4699 27.449 25.0265 32 32.0394 32C40.0828 32 46.8726 26.4914 48.9207 19.0124L48.9137 18.9957C49.3246 17.494 49.549 15.9149 49.549 14.2829C49.549 11.8903 49.2846 9.30824 48.4297 7.22446L48.0322 7.22578H44.2402L44.3446 7.51055L44.3481 7.51768C44.8915 8.57792 45.3016 9.71739 45.5654 10.9119L45.5678 10.9226L45.5775 10.9458C45.7894 11.9126 45.9078 12.9142 45.9078 13.9449C45.9078 21.6732 39.6867 27.9603 32.0394 27.9603C27.3656 27.9603 21.7412 24.258 20.2244 20.9032L11.5605 1.03223H11.1217H9.58602Z" fill="url(#paint0_linear_5154_3174)"/>
<defs>
<linearGradient id="paint0_linear_5154_3174" x1="9.90979" y1="20.0258" x2="31.1746" y2="20.0258" gradientUnits="userSpaceOnUse">
<stop stop-color="#006EFF"/>
<stop offset="1" stop-color="#2ED477"/>
</linearGradient>
</defs>
</svg>
